<svg xmlns="http://www.w3.org/2000/svg" width="512" height="512" viewBox="0 0 512 512" role="img" aria-labelledby="title desc">
  <title id="title">AI Refactor Playbook Runner logo</title>
  <desc id="desc">Minimal book icon.</desc>
  <rect width="512" height="512" rx="120" fill="#0f172a" />
  <path d="M146 150c0-18 14-32 32-32h146c28 0 50 22 50 50v206c0 12-10 22-22 22H178c-18 0-32-14-32-32V150Z" fill="none" stroke="#e2e8f0" stroke-width="22" stroke-linejoin="round"/>
  <path d="M186 172h144c10 0 18 8 18 18v30c0 10-8 18-18 18H186c-10 0-18-8-18-18v-30c0-10 8-18 18-18Z" fill="#1e293b" stroke="#e2e8f0" stroke-width="18" stroke-linejoin="round"/>
  <path d="M186 296h144" stroke="#e2e8f0" stroke-width="18" stroke-linecap="round"/>
  <path d="M186 334h104" stroke="#e2e8f0" stroke-width="18" stroke-linecap="round"/>
  <path d="M146 150c0-18 14-32 32-32" fill="none" stroke="#67e8f9" stroke-width="22" stroke-linecap="round"/>
  <path d="M366 168v190" stroke="#67e8f9" stroke-width="18" stroke-linecap="round" opacity="0.9"/>
</svg>